<?xml version="1.0" encoding="utf-8"?>
<!-- Generator: Adobe Illustrator 22.1.0, SVG Export Plug-In . SVG Version: 6.00 Build 0)  -->
<svg version="1.1" id="圖層_1" xmlns="http://www.w3.org/2000/svg" xmlns:xlink="http://www.w3.org/1999/xlink" x="0px" y="0px"
	 viewBox="0 0 153.4 113.7" style="enable-background:new 0 0 153.4 113.7;" xml:space="preserve">
<style type="text/css">
	.st0{fill:#261F19;}
	.st1{fill:#DDAE2C;}
</style>
<g>
	<polygon class="st0" points="94.6,39.8 94.6,28.1 81.3,28.1 81.3,22.9 99.7,22.9 99.7,39.8 	"/>
	<g>
		<g>
			<g>
				<rect x="60" y="49.3" class="st0" width="14.4" height="5.1"/>
			</g>
		</g>
	</g>
	<g>
		<g>
			<g>
				<rect x="94.6" y="81.7" class="st0" width="5.1" height="18.5"/>
			</g>
		</g>
	</g>
	<circle class="st0" cx="97.1" cy="13.2" r="3.2"/>
	<polygon class="st0" points="94.6,112.9 94.6,101.2 81.3,101.2 81.3,96 99.7,96 99.7,112.9 	"/>
	<g>
		<g>
			<g>
				<rect x="106" y="96" class="st0" width="8.8" height="5.1"/>
			</g>
		</g>
	</g>
	<path class="st0" d="M74.3,28.5C74.3,28.5,74.3,28.5,74.3,28.5l-5.2,0c0-6.1-4.1-11.2-9.7-12.8c-0.5-0.1-0.9-0.6-0.9-1.1v-2.9
		c0-0.7,0.7-1.3,1.4-1.1c1.1,0.2,2.2,0.6,3.2,1.1c3.6,1.5,6.5,4.2,8.5,7.5v0C73.4,21.9,74.5,24.8,74.3,28.5z"/>
	<path class="st0" d="M74.3,96.6c-0.2,1.9-0.7,3.6-1.4,5.3c-1.5,3.6-4.2,6.6-7.5,8.5c-1.7,1-3.5,1.8-5.4,2.3
		c-0.7,0.2-1.4-0.4-1.4-1.1v-3c0-0.5,0.4-1,0.9-1.1c5.6-1.5,9.8-6.7,9.8-12.8h3.2c0.6,0,1.1,0.3,1.5,0.7
		C74.2,95.6,74.3,96.1,74.3,96.6z"/>
	<rect x="11.8" y="49.2" class="st0" width="21.9" height="5.1"/>
	<path class="st1" d="M13.2,26.2l0.4,2.6c0.1,0.4,0.1,0.9,0.2,1.3l0.1,1.3c0.1,0.9,0.2,1.7,0.2,2.6l0.1,2.6c0,3.5-0.2,7-0.7,10.5
		c-0.2,1.8-0.5,3.5-0.7,5.2c-0.3,1.7-0.6,3.5-0.9,5.2c-0.6,3.4-1.4,6.8-2.1,10.2c-0.4,1.7-0.9,3.3-1.3,5c-0.5,1.7-0.9,3.3-1.3,5
		l-0.6,2.5c-0.2,0.8-0.4,1.7-0.5,2.5c-0.3,1.6-0.8,3.5-0.8,4.6c0,0.5,0.1,0.8,0.2,0.9c0.1,0.1,0.3,0.3,0.7,0.4
		c0.4,0.1,0.9,0.1,1.3,0c0.1,0,0.2-0.1,0.3-0.1c0.1-0.1,0.2-0.1,0.4-0.2c0.2-0.1,0.5-0.3,0.7-0.5c1-0.8,2-2,3.2-3.4
		c1.1-1.3,2.2-2.6,3.3-4C24,69.7,32.4,58.7,40.2,47.4l2.9-4.3l1.4-2.1c0.5-0.7,1-1.5,1.5-2.2c1.1-1.5,2.4-3,4.1-4.3
		c0.9-0.6,1.9-1.2,2.9-1.6c0.3-0.1,0.5-0.2,0.8-0.3c0.3-0.1,0.6-0.1,1-0.2c0.4,0,0.8,0,1.3,0c0.5,0.1,1,0.3,1.5,0.5
		c0.9,0.5,1.5,1.3,1.9,2c0.4,0.7,0.5,1.3,0.7,1.8c0.1,0.6,0.2,1,0.3,1.4c0.1,0.5,0.2,0.9,0.2,1.4c0.3,1.8,0.4,3.6,0.5,5.4
		c0.2,3.6,0.2,7,0.2,10.5l0.2,20.8c0.1,3.5-0.1,6.9,0.9,9.4c0.4,1.2,1.2,2.3,2.1,3c0.5,0.3,0.9,0.6,1.4,0.7c0.2,0.1,0.5,0.1,0.7,0.1
		c0.1,0,0.3,0,0.4,0c0.1,0,0.3,0,0.4,0c0.3,0,0.5-0.1,0.8-0.2c0.3-0.1,0.5-0.2,0.8-0.4c0.5-0.3,1.1-0.7,1.6-1.2c1-1,2-2.2,2.9-3.5
		c0.9-1.3,1.8-2.9,2.7-4.3l2.7-4.4l10.8-17.8l10.8-17.8c1.8-3,3.6-5.9,5.5-8.9c0.9-1.5,1.9-2.9,2.9-4.4c1-1.5,1.9-2.9,3.1-4.3
		c2.3-2.7,4.7-5.3,7.3-7.8c2.6-2.4,5.3-4.7,8.3-6.7c1.5-1,3-1.9,4.5-2.8c1.6-0.8,3.1-1.6,4.8-2.3c0.8-0.3,1.7-0.6,2.5-0.9
		c0.8-0.3,1.7-0.6,2.5-0.8c1.7-0.5,3.4-0.8,5.1-1c-3.3,1-6.5,2.3-9.5,4c-1.5,0.8-2.9,1.8-4.3,2.8c-1.4,1-2.7,2-4,3.2
		c-2.6,2.2-4.9,4.7-7.1,7.2c-2.2,2.6-4.2,5.3-6,8.1c-0.5,0.7-1,1.4-1.4,2.1c-0.5,0.7-1,1.4-1.5,2.1c-1,1.4-1.9,2.8-2.8,4.3
		c-1.9,2.9-3.6,5.8-5.4,8.8L94.2,60.2L83.4,78l-2.7,4.4l-1.3,2.2c-0.4,0.7-0.9,1.5-1.4,2.3c-0.5,0.8-1.1,1.5-1.7,2.3
		c-0.6,0.7-1.3,1.5-2,2.2c-0.7,0.7-1.6,1.4-2.5,1.9c-0.5,0.3-1,0.5-1.5,0.7c-0.6,0.2-1.1,0.4-1.7,0.5c-0.3,0.1-0.6,0.1-0.9,0.1
		c-0.3,0-0.6,0-0.9,0c-0.6,0-1.2-0.1-1.8-0.3c-1.2-0.3-2.3-0.9-3.2-1.6c-1.8-1.4-3.1-3.3-3.8-5.3c-0.7-2-1-4-1.1-5.8
		c-0.1-1.9-0.1-3.6-0.1-5.3l-0.2-20.8c0-3.5,0-6.9-0.2-10.3c-0.1-1.7-0.2-3.3-0.5-4.9c-0.1-0.4-0.1-0.8-0.2-1.2
		c-0.1-0.4-0.1-0.8-0.2-1.1c-0.1-0.3-0.2-0.5-0.2-0.6c-0.1-0.1,0,0,0.2,0.1c0.1,0,0.2,0.1,0.2,0.1c0.1,0,0.1,0,0,0c0,0-0.1,0-0.3,0
		l-0.4,0.1c-0.5,0.2-1.1,0.5-1.6,0.9c-1.1,0.8-2,1.9-3,3.2c-0.5,0.6-0.9,1.3-1.4,2L47.4,46l-2.9,4.3c-7.9,11.4-16.3,22.6-25.2,33.3
		c-1.1,1.3-2.2,2.7-3.3,4c-0.6,0.7-1.1,1.3-1.8,2c-0.6,0.7-1.4,1.4-2.2,2.1c-0.4,0.3-0.9,0.6-1.4,0.9c-0.3,0.1-0.5,0.3-0.8,0.4
		c-0.3,0.1-0.6,0.2-0.9,0.3c-1.2,0.3-2.5,0.4-3.8,0.1c-1.3-0.3-2.7-1-3.7-2.3c-0.5-0.6-0.8-1.3-1-2c-0.2-0.7-0.3-1.4-0.3-2
		c0-1.2,0.2-2.2,0.4-3.1l0.5-2.6c0.2-0.9,0.4-1.7,0.6-2.6L2,76.5l1.3-5.1c0.4-1.7,0.8-3.4,1.3-5c2.2-6.6,4.4-13.1,6-19.8
		C12.3,39.9,13.2,33.1,13.2,26.2z"/>
	<path class="st0" d="M25.3,28.5v66.9c0,6.5,4.8,12,11,13.1c1.3,0.2,2.2,1.4,2.2,2.7v2.7c-6.7,0-12.6-3.6-15.8-9
		c-2.9,4.8-7.9,8.3-13.8,8.9c-1.1,0.1-2-0.7-2-1.8v-3.2c7.3,0,13.2-5.9,13.2-13.2V28.5c0-7.3-5.9-13.2-13.2-13.2V12
		c0-1.1,0.9-1.9,2-1.8c5.9,0.6,10.9,4.1,13.8,8.9c3.2-5.4,9.1-9,15.8-9v2.7c0,1.3-0.9,2.4-2.2,2.7C30.1,16.5,25.3,21.9,25.3,28.5z"
		/>
	<circle class="st0" cx="142.3" cy="67.3" r="3.2"/>
	<circle class="st0" cx="142.3" cy="81.7" r="3.2"/>
	<circle class="st0" cx="121.7" cy="67.3" r="3.2"/>
	<circle class="st0" cx="121.7" cy="81.7" r="3.2"/>
	<path class="st0" d="M148.2,28.5c0-7.3-5.9-13.2-13.2-13.2V12c0-0.6,0.3-1.1,0.7-1.5c0.3-0.3,0.8-0.4,1.3-0.3
		c1.9,0.2,3.6,0.7,5.3,1.4c3.6,1.5,6.6,4.2,8.5,7.5c0.1-0.1-0.1,0.1,0,0c1.5,2.5,2.6,5.2,2.6,8.4c0,0.3,0,0.6,0,1"/>
	<path class="st0" d="M134.9,95c0,0.3,0,0.6,0,1c0,3.2-1.1,5.9-2.6,8.4c0,0,0,0,0,0c-2,3.3-5,6-8.5,7.5c-1.6,0.7-3.4,1.2-5.3,1.4
		c-0.5,0.1-0.9-0.1-1.3-0.3c-0.4-0.3-0.7-0.9-0.7-1.5v-3.2c7.3,0,13.2-5.9,13.2-13.2V54.4c0-7.3-5.9-13.2-13.2-13.2v-3.2
		c0-0.6,0.3-1.1,0.7-1.5c0.3-0.3,0.8-0.4,1.3-0.3c1.9,0.2,3.6,0.7,5.3,1.4c3.6,1.5,6.5,4.2,8.5,7.5v0c1.5,2.5,2.6,5.2,2.6,8.4
		c0,0.3,0,0.6,0,1v2l0,18.3l0,18.3V95z"/>
	<polygon class="st0" points="135,93 134.9,93 134.9,74.7 	"/>
	<polygon class="st0" points="135,56.3 134.9,74.7 134.9,56.3 	"/>
	<path class="st0" d="M153.4,95c0,0.3,0,0.6,0,1c0,3.2-1.1,5.9-2.6,8.4c0,0,0,0,0,0c-2,3.3-5,6-8.5,7.5c-1.6,0.7-3.4,1.2-5.3,1.4
		c-0.5,0.1-0.9-0.1-1.3-0.3c-0.4-0.3-0.7-0.9-0.7-1.5v-3.2c7.3,0,13.2-5.9,13.2-13.2V54.4c0-7.3-5.9-13.2-13.2-13.2v-3.2
		c0-0.6,0.3-1.1,0.7-1.5c0.3-0.3,0.8-0.4,1.3-0.3c1.9,0.2,3.6,0.7,5.3,1.4c3.6,1.5,6.5,4.2,8.5,7.5v0c1.5,2.5,2.6,5.2,2.6,8.4
		c0,0.3,0,0.6,0,1v2l0,18.3l0,18.3V95z"/>
	<path class="st0" d="M97.1,73.1c-9.9,0-17.9-8-17.9-17.9c0-9.9,8-17.9,17.9-17.9c4.8,0,9.3,1.9,12.7,5.2c3.4,3.4,5.2,7.9,5.2,12.7
		C115,65,107,73.1,97.1,73.1z M97.1,42.4c-7,0-12.8,5.7-12.8,12.8c0,7,5.7,12.8,12.8,12.8c7,0,12.8-5.7,12.8-12.8
		c0-3.4-1.3-6.6-3.7-9C103.7,43.7,100.5,42.4,97.1,42.4z"/>
	<path class="st0" d="M49.3,13.8C49.3,13.9,49.3,13.9,49.3,13.8c-0.6-0.9-1.2-1.7-1.8-2.5C48.2,12.1,48.8,13,49.3,13.8z"/>
</g>
</svg>
