<?xml version="1.0" encoding="utf-8"?>
<!-- Generator: Adobe Illustrator 22.1.0, SVG Export Plug-In . SVG Version: 6.00 Build 0)  -->
<svg version="1.1" id="圖層_1" xmlns="http://www.w3.org/2000/svg" xmlns:xlink="http://www.w3.org/1999/xlink" x="0px" y="0px"
	 viewBox="0 0 219.5 141.3" style="enable-background:new 0 0 219.5 141.3;" xml:space="preserve">
<style type="text/css">
	.st0{fill:#261F19;}
	.st1{fill:#DDAE2C;}
</style>
<polygon class="st0" points="98.2,47.2 98.2,33.8 83,33.8 83,27.9 104,27.9 104,47.2 "/>
<g>
	<g>
		<g>
			<rect x="54.2" y="58" class="st0" width="21" height="5.8"/>
		</g>
	</g>
</g>
<g>
	<g>
		<g>
			<rect x="129.7" y="19.1" class="st0" width="5.8" height="16.4"/>
		</g>
	</g>
</g>
<g>
	<g>
		<g>
			<rect x="98.2" y="95" class="st0" width="5.8" height="21.1"/>
		</g>
	</g>
</g>
<circle class="st0" cx="101.1" cy="16.9" r="3.6"/>
<polygon class="st0" points="98.2,130.6 98.2,117.2 83,117.2 83,111.3 104,111.3 104,130.6 "/>
<g>
	<g>
		<g>
			<rect x="111.3" y="111.4" class="st0" width="10" height="5.8"/>
		</g>
	</g>
</g>
<path class="st0" d="M75.1,33.1v1.1h-5.9c0-6.1-3.7-11.5-9-13.8c-0.5-0.2-0.8-0.7-0.8-1.2v-3.5c0-0.9,0.9-1.6,1.8-1.3
	c0.4,0.2,0.9,0.3,1.3,0.5c4.1,1.8,7.5,4.8,9.7,8.6C73.8,26.4,75.1,29.5,75.1,33.1z"/>
<path class="st0" d="M75.1,112c-0.2,2.1-0.8,4.1-1.6,6c-1.8,4.1-4.8,7.5-8.6,9.7c-1.2,0.7-2.5,1.4-3.8,1.9c-0.9,0.3-1.8-0.3-1.8-1.2
	v-3.5c0-0.5,0.3-1,0.8-1.2c5.4-2.3,9.1-7.7,9.1-13.9H73c0.7,0,1.3,0.3,1.7,0.8C75,110.9,75.2,111.4,75.1,112z"/>
<path class="st0" d="M165.3,110.2c0,0.4,0,0.7,0,1.1c0,3.6-1.2,6.7-3,9.6c0-0.1,0,0,0,0c-2.3,3.8-5.7,6.8-9.7,8.6
	c-1.9,0.8-3.9,1.4-6,1.6c-0.5,0.1-1.1-0.1-1.5-0.4c-0.5-0.4-0.8-1-0.8-1.7v-3.7c8.3,0,15.1-6.8,15.1-15.1V63.8
	c0-8.3-6.8-15.1-15.1-15.1V45c0-0.7,0.3-1.3,0.8-1.7c0.4-0.3,0.9-0.5,1.5-0.4c2.1,0.2,4.1,0.8,6,1.6c4.1,1.8,7.5,4.8,9.7,8.6l0,0
	c1.7,2.9,3,6,3,9.6c0,0.4,0,0.7,0,1.1v2.3V87v20.9V110.2z"/>
<g id="圖層_2_1_">
	<path class="st1" d="M219,11.5c-3.8,1.1-7.5,2.6-10.8,4.6c-1.7,0.9-3.3,2-4.9,3.1c-1.6,1.2-3.1,2.3-4.5,3.6
		c-2.9,2.5-5.6,5.3-8.1,8.3s-4.8,6.1-6.9,9.3c-0.5,0.8-1.1,1.6-1.7,2.4c-0.6,0.8-1.2,1.6-1.7,2.4c-1.1,1.6-2.2,3.2-3.2,4.9
		c-2.1,3.3-4.2,6.6-6.2,10l-24.6,40.5l-3.1,5.1l-1.5,2.5c-0.5,0.8-1,1.7-1.6,2.6s-1.2,1.8-1.9,2.6c-0.7,0.9-1.4,1.7-2.3,2.5
		c-0.8,0.8-1.8,1.5-2.9,2.2c-0.5,0.3-1.1,0.6-1.8,0.8c-0.6,0.2-1.3,0.4-2,0.5c-0.3,0.1-0.7,0.1-1,0.1c-0.4,0-0.7,0-1.1,0
		c-0.7,0-1.4-0.1-2.1-0.3c-1.4-0.4-2.6-1-3.7-1.8c-2.1-1.6-3.5-3.8-4.4-6.1c-0.8-2.3-1.1-4.5-1.2-6.7c-0.1-2.1-0.1-4.1-0.1-6.1
		l-0.2-23.7c0-4,0-7.9-0.2-11.7c-0.1-1.9-0.3-3.8-0.5-5.6c-0.1-0.5-0.1-0.9-0.2-1.4c-0.1-0.4-0.2-1-0.2-1.3c0-0.1-0.1-0.3-0.1-0.4
		h0.1c0.1,0,0.2,0,0.3-0.1c0.1,0,0,0,0,0s-0.2,0-0.3-0.1c-0.1-0.1-0.1-0.1-0.2-0.1l0,0c0,0.1,0.1,0.2,0.1,0.3l-0.4,0.1
		c-0.6,0.2-1.2,0.5-1.8,1c-1.2,0.9-2.3,2.2-3.4,3.7c-0.5,0.7-1.1,1.5-1.6,2.3l-1.7,2.5l-3.4,4.9c-9,13.1-18.6,25.7-28.8,38
		c-1.3,1.5-2.5,3-3.8,4.6c-0.6,0.8-1.3,1.5-2,2.3s-1.5,1.6-2.5,2.4c-0.5,0.4-1,0.7-1.6,1.1c-0.3,0.2-0.6,0.3-0.9,0.4s-0.7,0.3-1,0.4
		c-1.4,0.4-2.9,0.5-4.4,0.1c-1.5-0.3-3.1-1.1-4.2-2.6c-0.5-0.7-0.9-1.5-1.1-2.3c-0.2-0.8-0.3-1.5-0.3-2.2c0-1.4,0.2-2.5,0.4-3.5
		l0.6-2.9c0.2-1,0.4-2,0.7-2.9l0.7-2.9l1.4-5.8c0.5-1.9,0.9-3.9,1.5-5.8c2.5-7.5,5-15,6.8-22.6c1.5-5.9,2.5-11.9,2.8-18.1v-0.1
		c0.1-1.7,0.1-3.4,0.1-5.2c4.6-3.7,0.3,24.3-0.5,29.1c0,0.2-0.1,0.4-0.1,0.5s0,0.2,0,0.2c-0.3,2-0.7,3.9-1,5.9
		c-0.7,3.9-1.6,7.8-2.4,11.7c-0.4,1.9-1,3.8-1.5,5.7c-0.5,1.9-1,3.8-1.5,5.7l-0.7,2.8c-0.2,1-0.4,1.9-0.6,2.8
		c-0.3,1.8-0.9,4-0.9,5.2c0,0.6,0.1,0.9,0.2,1c0.1,0.1,0.4,0.3,0.8,0.4c0.4,0.1,1,0.1,1.5,0c0.1,0,0.2-0.1,0.4-0.1
		c0.1-0.1,0.3-0.1,0.4-0.2c0.3-0.2,0.6-0.3,0.8-0.6c1.2-0.9,2.3-2.3,3.6-3.8c1.3-1.5,2.5-3,3.8-4.5c10-12.1,19.5-24.7,28.4-37.6
		l3.3-4.9l1.7-2.4c0.6-0.8,1.1-1.7,1.8-2.5c1.2-1.7,2.7-3.5,4.7-4.9c1-0.7,2.1-1.4,3.4-1.8c0.3-0.1,0.6-0.2,1-0.3
		c0.3-0.1,0.7-0.2,1.2-0.2c0.4,0,0.9,0,1.5,0s1.2,0.3,1.7,0.6c1.1,0.6,1.8,1.5,2.1,2.3c0.4,0.8,0.6,1.5,0.8,2.1
		c0.2,0.7,0.2,1.1,0.3,1.6c0.1,0.5,0.2,1,0.2,1.5c0.3,2.1,0.5,4.1,0.6,6.2c0.2,4.1,0.2,8,0.2,12l0.2,23.7c0.1,4-0.1,7.8,1,10.8
		c0.5,1.4,1.4,2.7,2.4,3.4c0.5,0.4,1.1,0.7,1.6,0.8c0.3,0.1,0.5,0.1,0.8,0.1c0.1,0,0.3,0,0.4,0c0.1,0,0.3,0,0.4,0
		c0.3,0,0.6-0.1,0.9-0.2c0.3-0.1,0.6-0.2,0.9-0.5c0.6-0.3,1.2-0.8,1.8-1.4c1.2-1.1,2.3-2.5,3.3-4s2-3.3,3-4.9l3.1-5.1l12.3-20.3
		L166,56.9c2.1-3.4,4.1-6.8,6.3-10.1c1.1-1.7,2.2-3.3,3.3-5s2.2-3.4,3.5-4.9c2.6-3.1,5.3-6.1,8.3-8.9s6.1-5.4,9.5-7.6
		c1.7-1.2,3.4-2.2,5.2-3.2c1.8-0.9,3.6-1.8,5.5-2.6c0.9-0.4,1.9-0.7,2.8-1.1c1-0.3,1.9-0.6,2.9-0.9C215.1,12.1,217,11.8,219,11.5z"
		/>
</g>
<circle class="st0" cx="152.6" cy="78.6" r="3.6"/>
<circle class="st0" cx="152.6" cy="95" r="3.6"/>
<circle class="st0" cx="129.1" cy="78.6" r="3.6"/>
<circle class="st0" cx="129.1" cy="95" r="3.6"/>
<path class="st0" d="M159.4,34.2c0-8.3-6.8-15.1-15.1-15.1v-3.7c0-0.7,0.3-1.3,0.8-1.7c0.4-0.3,0.9-0.5,1.5-0.4
	c2.1,0.2,4.1,0.8,6,1.6c4.1,1.8,7.5,4.8,9.7,8.6c0.1-0.1-0.1,0.1,0,0c1.7,2.9,3,6,3,9.6c0,0.4,0,0.7,0,1.1"/>
<path class="st0" d="M144.2,110.2c0,0.4,0,0.7,0,1.1c0,3.6-1.2,6.7-3,9.6c0-0.1,0,0,0,0c-2.3,3.8-5.7,6.8-9.7,8.6
	c-1.9,0.8-3.9,1.4-6,1.6c-0.5,0.1-1.1-0.1-1.5-0.4c-0.5-0.4-0.8-1-0.8-1.7v-3.7c8.3,0,15.1-6.8,15.1-15.1V63.8
	c0-8.3-6.8-15.1-15.1-15.1V45c0-0.7,0.3-1.3,0.8-1.7c0.4-0.3,0.9-0.5,1.5-0.4c2.1,0.2,4.1,0.8,6,1.6c4.1,1.8,7.5,4.8,9.7,8.6l0,0
	c1.7,2.9,3,6,3,9.6c0,0.4,0,0.7,0,1.1v2.3V87v20.9V110.2z"/>
<polygon class="st0" points="144.3,66.1 144.3,87 144.2,66.1 "/>
<path class="st0" d="M101.1,85.1c-11.3,0-20.4-9.2-20.4-20.4c0-11.3,9.2-20.4,20.4-20.4c5.5,0,10.6,2.1,14.4,6c3.9,3.9,6,9,6,14.4
	C121.5,76,112.3,85.1,101.1,85.1z M101.1,50.2c-8,0-14.6,6.5-14.6,14.6c0,8,6.5,14.6,14.6,14.6s14.6-6.5,14.6-14.6
	c0-3.9-1.5-7.5-4.3-10.3C108.6,51.7,105,50.2,101.1,50.2z"/>
<path class="st1" d="M101.5,69.8c-4.2,6-8.5,12-13,17.9h-7.4c4.5-5.9,8.9-11.8,13.2-17.9H101.5z"/>
<path class="st1" d="M101.5,69.8c-4.2,6-8.5,12-13,17.9h-7.4c4.5-5.9,8.9-11.8,13.2-17.9H101.5z"/>
</svg>
