<?xml version="1.0" encoding="utf-8"?>
<!-- Generator: Adobe Illustrator 22.1.0, SVG Export Plug-In . SVG Version: 6.00 Build 0)  -->
<svg version="1.1" id="圖層_1" xmlns="http://www.w3.org/2000/svg" xmlns:xlink="http://www.w3.org/1999/xlink" x="0px" y="0px"
	 viewBox="0 0 122.1 122.3" style="enable-background:new 0 0 122.1 122.3;" xml:space="preserve">
<style type="text/css">
	.st0{fill:#261F19;stroke:#261F19;stroke-width:3;stroke-linecap:round;stroke-linejoin:round;stroke-miterlimit:10;}
	.st1{fill:#DDAE2C;stroke:#DDAE2C;stroke-width:3;stroke-linecap:round;stroke-linejoin:round;stroke-miterlimit:10;}
	.st2{fill:none;stroke:#2D4234;stroke-width:3;stroke-linecap:round;stroke-linejoin:round;stroke-miterlimit:10;}
	.st3{fill:#DDAE2C;}
	.st4{fill:#E0CEA2;}
	.st5{fill:#261F19;}
</style>
<path class="st0" d="M107.7,27.3c-0.4,0-0.8-0.2-1-0.5C91,6,63.3-1.6,39.2,8.5c-0.7,0.3-1.4,0-1.7-0.7c-0.3-0.7,0-1.4,0.7-1.7
	c25.1-10.5,54.1-2.6,70.4,19.2c0.4,0.6,0.3,1.4-0.3,1.8C108.2,27.2,107.9,27.3,107.7,27.3z"/>
<path class="st0" d="M61.2,120.8c-1.7,0-3.3-0.1-5-0.2c-0.7-0.1-1.2-0.7-1.2-1.4c0.1-0.7,0.7-1.2,1.4-1.2
	c11.2,0.9,22.2-1.4,32.1-6.8c13.2-7.2,22.9-19.2,27.3-33.6c4.3-14.5,2.8-29.7-4.3-43c-0.3-0.6-0.1-1.4,0.5-1.7
	c0.6-0.3,1.4-0.1,1.7,0.5c7.4,13.9,8.9,29.9,4.4,45c-4.5,15.1-14.6,27.6-28.4,35.2C80.9,118.2,71.1,120.8,61.2,120.8z"/>
<path class="st0" d="M42,117.6c-0.2,0-0.3,0-0.4-0.1c-14-4.9-25.6-14.6-32.8-27.7c-11.3-20.7-9.4-46.2,5-65c0.4-0.6,1.2-0.7,1.8-0.3
	c0.6,0.4,0.7,1.2,0.3,1.8c-13.8,18-15.7,42.3-4.8,62.2c6.8,12.4,18,21.9,31.4,26.5c0.7,0.3,1,0.9,0.8,1.6
	C43,117.2,42.6,117.6,42,117.6z"/>
<path class="st1" d="M19.6,21.3c-0.3,0-0.7-0.1-0.9-0.3c-0.5-0.5-0.5-1.3,0-1.8c4.2-4.3,8.9-7.7,14.2-10.6c0.6-0.3,1.4-0.1,1.7,0.5
	c0.3,0.6,0.1,1.4-0.5,1.7c-5,2.6-9.5,6-13.5,10.1C20.3,21.2,20,21.3,19.6,21.3z"/>
<path class="st2" d="M96.4,119.8"/>
<path class="st3" d="M16.3,86l3.1,6.2c0.2,0.5,0.7,0.8,1.1,0.8l6.8,1c1.3,0.2,1.7,1.7,0.8,2.5l-4.9,4.8c-0.3,0.3-0.5,0.8-0.5,1.4
	l1.1,6.8c0.2,1.3-1,2.2-2.2,1.6l-6-3.2c-0.5-0.2-0.9-0.2-1.4,0l-6,3.2c-1.1,0.6-2.4-0.3-2.2-1.6l1.1-6.8c0.1-0.5-0.1-1-0.5-1.4
	l-4.9-4.8C1,95.6,1.6,94.1,2.7,94l6.8-1c0.5-0.1,0.9-0.3,1.1-0.8l3.1-6.2C14.2,84.9,15.8,84.9,16.3,86z"/>
<path class="st4" d="M74.1,45.3l-17.9,28h-9.6c-1.6,0-2.9-1.4-2.9-3.2V48.4c0-1.7,1.3-3.2,2.9-3.2C46.7,45.3,74.1,45.3,74.1,45.3z"
	/>
<path class="st3" d="M83.9,48.4v21.8c0,1.8-1.3,3.2-2.9,3.2H56.3l17.9-28h6.8C82.6,45.3,83.9,46.7,83.9,48.4z"/>
<path class="st5" d="M91.9,70.2c-0.7,0-1.4-0.7-1.4-1.4v-31c0-1.7-1.4-3.1-3.1-3.1H34.5c-1.7,0-3.1,1.4-3.1,3.1v30.9
	c0,0.7-0.7,1.4-1.4,1.4s-1.4-0.7-1.4-1.4V37.7c0-3.3,2.6-5.9,5.9-5.9h52.9c3.3,0,5.9,2.6,5.9,5.9v30.9
	C93.3,69.5,92.8,70.2,91.9,70.2z"/>
<path class="st5" d="M82.8,70.3c-0.7,0-1.4-0.7-1.4-1.4V45.6c0-1.1-0.8-2-1.8-2H42.4c-0.9,0-1.8,0.9-1.8,2v23.3
	c0,0.7-0.7,1.4-1.4,1.4s-1.4-0.7-1.4-1.4V45.6c0-2.6,2-4.8,4.6-4.8h37.3c2.5,0,4.6,2.1,4.6,4.8v23.3C84.2,69.7,83.6,70.3,82.8,70.3z
	"/>
<path class="st5" d="M93.2,86.8H28.8c-3.8,0-6.9-2.1-6.9-4.8V75c0-0.7,0.7-1.4,1.4-1.4h29.2c0.7,0,1.2,0.5,1.4,1.1
	c0.3,1.4,1.6,2.4,3.1,2.4h7.5c1.5,0,2.7-1,3.1-2.4c0.1-0.7,0.7-1.1,1.4-1.1h29.9c0.7,0,1.4,0.7,1.4,1.4v7.1
	C100.1,84.8,97.2,86.8,93.2,86.8z M24.7,76.3V82c0,0.8,1.6,2,4.1,2h64.5c2.5,0,4.1-1.2,4.1-2v-5.7H69.8c-0.9,2.1-3.1,3.5-5.4,3.5
	h-7.5c-2.3,0-4.5-1.5-5.4-3.5H24.7z"/>
<g>
	<g>
		<path class="st5" d="M52.9,56.9l-4.2,1.9l4.2,2c0.4,0.2,0.6,0.5,0.6,0.8v0.8c0,0.3-0.2,0.7-0.5,0.7c-0.2,0.1-0.4,0.2-0.5,0.2
			s-0.3,0-0.4-0.1L45.1,60c-0.4-0.2-0.6-0.5-0.6-0.8v-0.7c0-0.4,0.2-0.7,0.6-0.8l7.1-3.3c0.3-0.1,0.7-0.1,0.9,0.1
			c0.3,0.2,0.5,0.5,0.5,0.7V56C53.5,56.4,53.2,56.7,52.9,56.9z"/>
	</g>
	<g>
		<path class="st5" d="M66.5,51.3l-5,12.9c-0.2,0.4-0.5,0.6-0.8,0.6h-0.7c-0.3,0-0.6-0.2-0.7-0.4c-0.2-0.3-0.2-0.6-0.1-0.8l5-12.9
			c0.1-0.4,0.5-0.6,0.8-0.6h0.7c0.3,0,0.6,0.2,0.7,0.4S66.6,51,66.5,51.3z"/>
	</g>
	<g>
		<path class="st5" d="M75.6,58.4v0.7c0,0.4-0.2,0.7-0.6,0.8L68,63.3c-0.1,0.1-0.3,0.1-0.4,0.1c-0.2,0-0.4,0-0.5-0.2
			c-0.3-0.2-0.5-0.5-0.5-0.7v-0.8c0-0.4,0.2-0.7,0.6-0.8l4.2-2l-4.2-1.9c-0.4-0.2-0.6-0.5-0.6-0.8v-0.8c0-0.3,0.2-0.6,0.5-0.7
			c0.3-0.2,0.6-0.2,0.9-0.1l7.1,3.3C75.4,57.8,75.6,58,75.6,58.4z"/>
	</g>
</g>
<circle class="st3" cx="35.2" cy="73.4" r="1.7"/>
<path class="st3" d="M86.7,66.5c-0.1,0-0.2,0-0.3-0.1l-3.9-2.5c-0.2-0.2-0.3-0.5-0.1-0.7c0.2-0.2,0.5-0.3,0.7-0.1l3.9,2.5
	c0.2,0.2,0.3,0.5,0.1,0.7C87,66.4,86.9,66.5,86.7,66.5z"/>
<path class="st3" d="M83.5,67.2c-0.1,0-0.2,0-0.3-0.1c-0.2-0.2-0.3-0.5-0.1-0.7l2.5-3.9c0.2-0.2,0.5-0.3,0.7-0.1
	c0.2,0.2,0.3,0.5,0.1,0.7L83.8,67C83.7,67.1,83.6,67.2,83.5,67.2z"/>
</svg>
