<?xml version="1.0" encoding="utf-8"?>
<!-- Generator: Adobe Illustrator 22.1.0, SVG Export Plug-In . SVG Version: 6.00 Build 0)  -->
<svg version="1.1" xmlns="http://www.w3.org/2000/svg" xmlns:xlink="http://www.w3.org/1999/xlink" x="0px" y="0px"
	 viewBox="0 0 122.1 122.3" style="enable-background:new 0 0 122.1 122.3;" xml:space="preserve">
<style type="text/css">
	.st0{fill:#261F19;stroke:#261F19;stroke-width:3;stroke-linecap:round;stroke-linejoin:round;stroke-miterlimit:10;}
	.st1{fill:#DDAE2C;stroke:#DDAE2C;stroke-width:3;stroke-linecap:round;stroke-linejoin:round;stroke-miterlimit:10;}
	.st2{fill:none;stroke:#2D4234;stroke-width:3;stroke-linecap:round;stroke-linejoin:round;stroke-miterlimit:10;}
	.st3{fill:#DDAE2C;}
	.st4{fill:#E0CEA2;}
	.st5{fill:none;stroke:#261F19;stroke-width:4;stroke-linecap:round;stroke-linejoin:round;stroke-miterlimit:10;}
	.st6{fill:none;stroke:#E0CEA2;stroke-width:3;stroke-linecap:round;stroke-linejoin:round;stroke-miterlimit:10;}
</style>
<g id="圖層_1">
	<path class="st0" d="M107.7,27.3c-0.4,0-0.8-0.2-1-0.5C91,6,63.3-1.6,39.2,8.5c-0.7,0.3-1.4,0-1.7-0.7s0-1.4,0.7-1.7
		c25.1-10.5,54.1-2.6,70.4,19.2c0.4,0.6,0.3,1.4-0.3,1.8C108.2,27.2,107.9,27.3,107.7,27.3z"/>
	<path class="st0" d="M61.2,120.8c-1.7,0-3.3-0.1-5-0.2c-0.7-0.1-1.2-0.7-1.2-1.4c0.1-0.7,0.7-1.2,1.4-1.2
		c11.2,0.9,22.2-1.4,32.1-6.8c13.2-7.2,22.9-19.2,27.3-33.6c4.3-14.5,2.8-29.7-4.3-43c-0.3-0.6-0.1-1.4,0.5-1.7s1.4-0.1,1.7,0.5
		c7.4,13.9,8.9,29.9,4.4,45s-14.6,27.6-28.4,35.2C80.9,118.2,71.1,120.8,61.2,120.8z"/>
	<path class="st0" d="M42,117.6c-0.2,0-0.3,0-0.4-0.1c-14-4.9-25.6-14.6-32.8-27.7c-11.3-20.7-9.4-46.2,5-65
		c0.4-0.6,1.2-0.7,1.8-0.3c0.6,0.4,0.7,1.2,0.3,1.8c-13.8,18-15.7,42.3-4.8,62.2c6.8,12.4,18,21.9,31.4,26.5c0.7,0.3,1,0.9,0.8,1.6
		C43,117.2,42.6,117.6,42,117.6z"/>
	<path class="st1" d="M19.6,21.3c-0.3,0-0.7-0.1-0.9-0.3c-0.5-0.5-0.5-1.3,0-1.8c4.2-4.3,8.9-7.7,14.2-10.6c0.6-0.3,1.4-0.1,1.7,0.5
		s0.1,1.4-0.5,1.7c-5,2.6-9.5,6-13.5,10.1C20.3,21.2,20,21.3,19.6,21.3z"/>
	<path class="st2" d="M96.4,119.8"/>
	<path class="st3" d="M16.3,86l3.1,6.2c0.2,0.5,0.7,0.8,1.1,0.8l6.8,1c1.3,0.2,1.7,1.7,0.8,2.5l-4.9,4.8c-0.3,0.3-0.5,0.8-0.5,1.4
		l1.1,6.8c0.2,1.3-1,2.2-2.2,1.6l-6-3.2c-0.5-0.2-0.9-0.2-1.4,0l-6,3.2c-1.1,0.6-2.4-0.3-2.2-1.6l1.1-6.8c0.1-0.5-0.1-1-0.5-1.4
		l-4.9-4.8c-0.7-0.9-0.1-2.4,1-2.5l6.8-1c0.5-0.1,0.9-0.3,1.1-0.8l3.1-6.2C14.2,84.9,15.8,84.9,16.3,86z"/>
</g>
<g id="圖層_2">
	<path class="st4" d="M73.7,28.3L55.9,56.2c-3.2-3.2-5.1-7.9-5.1-13.2c0-9.7,6.7-17.5,14.9-17.5C68.6,25.5,71.4,26.5,73.7,28.3z"/>
	<path class="st3" d="M80.6,43c0,9.7-6.7,17.5-14.9,17.5c-3.7,0-7.2-1.6-9.8-4.3l17.9-27.9C77.9,31.4,80.6,36.8,80.6,43z"/>
	<ellipse class="st5" cx="60.6" cy="39.2" rx="14.9" ry="17.5"/>
	<path class="st5" d="M32.8,89v-6.2c0-9.7,12.5-17.5,27.9-17.5s27.9,7.8,27.9,17.5V89"/>
	<path class="st3" d="M54.6,65.7c-0.1,0-0.3,0-0.4-0.1l-4.9-3.1c-0.3-0.3-0.4-0.6-0.1-0.9c0.3-0.3,0.6-0.4,0.9-0.1l4.9,3.1
		c0.3,0.3,0.4,0.6,0.1,0.9C55,65.6,54.8,65.7,54.6,65.7z"/>
	<path class="st3" d="M50.6,66.6c-0.1,0-0.3,0-0.4-0.1c-0.3-0.3-0.4-0.6-0.1-0.9l3.1-4.9c0.3-0.3,0.6-0.4,0.9-0.1
		c0.3,0.3,0.4,0.6,0.1,0.9L51,66.3C50.8,66.5,50.7,66.6,50.6,66.6z"/>
	<circle class="st3" cx="50.7" cy="22.2" r="2.1"/>
	<path class="st6" d="M75.6,75.8c3.8,2.4,6.2,5.7,6.2,9.4v4.7"/>
</g>
</svg>
