<?xml version="1.0" encoding="utf-8"?>
<!-- Generator: Adobe Illustrator 22.1.0, SVG Export Plug-In . SVG Version: 6.00 Build 0)  -->
<svg version="1.1" xmlns="http://www.w3.org/2000/svg" xmlns:xlink="http://www.w3.org/1999/xlink" x="0px" y="0px"
	 viewBox="0 0 122.1 122.3" style="enable-background:new 0 0 122.1 122.3;" xml:space="preserve">
<style type="text/css">
	.st0{fill:#261F19;stroke:#261F19;stroke-width:3;stroke-linecap:round;stroke-linejoin:round;stroke-miterlimit:10;}
	.st1{fill:#DDAE2C;stroke:#DDAE2C;stroke-width:3;stroke-linecap:round;stroke-linejoin:round;stroke-miterlimit:10;}
	.st2{fill:none;stroke:#2D4234;stroke-width:3;stroke-linecap:round;stroke-linejoin:round;stroke-miterlimit:10;}
	.st3{fill:#DDAE2C;}
	.st4{fill:none;stroke:#261F19;stroke-width:7;stroke-linecap:round;stroke-linejoin:round;stroke-miterlimit:10;}
	.st5{fill:#261F19;}
	.st6{fill:#E0CEA2;}
</style>
<g id="圖層_1">
	<path class="st0" d="M107.7,27.3c-0.4,0-0.8-0.2-1-0.5C91,6,63.3-1.6,39.2,8.5c-0.7,0.3-1.4,0-1.7-0.7s0-1.4,0.7-1.7
		c25.1-10.5,54.1-2.6,70.4,19.2c0.4,0.6,0.3,1.4-0.3,1.8C108.2,27.2,107.9,27.3,107.7,27.3z"/>
	<path class="st0" d="M61.2,120.8c-1.7,0-3.3-0.1-5-0.2c-0.7-0.1-1.2-0.7-1.2-1.4c0.1-0.7,0.7-1.2,1.4-1.2
		c11.2,0.9,22.2-1.4,32.1-6.8c13.2-7.2,22.9-19.2,27.3-33.6c4.3-14.5,2.8-29.7-4.3-43c-0.3-0.6-0.1-1.4,0.5-1.7s1.4-0.1,1.7,0.5
		c7.4,13.9,8.9,29.9,4.4,45s-14.6,27.6-28.4,35.2C80.9,118.2,71.1,120.8,61.2,120.8z"/>
	<path class="st0" d="M42,117.6c-0.2,0-0.3,0-0.4-0.1c-14-4.9-25.6-14.6-32.8-27.7c-11.3-20.7-9.4-46.2,5-65
		c0.4-0.6,1.2-0.7,1.8-0.3c0.6,0.4,0.7,1.2,0.3,1.8c-13.8,18-15.7,42.3-4.8,62.2c6.8,12.4,18,21.9,31.4,26.5c0.7,0.3,1,0.9,0.8,1.6
		C43,117.2,42.6,117.6,42,117.6z"/>
	<path class="st1" d="M19.6,21.3c-0.3,0-0.7-0.1-0.9-0.3c-0.5-0.5-0.5-1.3,0-1.8c4.2-4.3,8.9-7.7,14.2-10.6c0.6-0.3,1.4-0.1,1.7,0.5
		s0.1,1.4-0.5,1.7c-5,2.6-9.5,6-13.5,10.1C20.3,21.2,20,21.3,19.6,21.3z"/>
	<path class="st2" d="M96.4,119.8"/>
	<path class="st3" d="M16.3,86l3.1,6.2c0.2,0.5,0.7,0.8,1.1,0.8l6.8,1c1.3,0.2,1.7,1.7,0.8,2.5l-4.9,4.8c-0.3,0.3-0.5,0.8-0.5,1.4
		l1.1,6.8c0.2,1.3-1,2.2-2.2,1.6l-6-3.2c-0.5-0.2-0.9-0.2-1.4,0l-6,3.2c-1.1,0.6-2.4-0.3-2.2-1.6l1.1-6.8c0.1-0.5-0.1-1-0.5-1.4
		l-4.9-4.8c-0.7-0.9-0.1-2.4,1-2.5l6.8-1c0.5-0.1,0.9-0.3,1.1-0.8l3.1-6.2C14.2,84.9,15.8,84.9,16.3,86z"/>
</g>
<g id="圖層_2">
	<line class="st4" x1="35.1" y1="36.2" x2="86.8" y2="36.2"/>
	<path class="st5" d="M86.8,61.9H35.1c-1.9,0-3.5-1.6-3.5-3.5c0-1.9,1.6-3.5,3.5-3.5h51.7c1.9,0,3.5,1.6,3.5,3.5
		C90.3,60.3,88.7,61.9,86.8,61.9z"/>
	<path class="st6" d="M71.9,59.7l-7,7H42.9c-1.9,0-3.5-1.6-3.5-3.5c0-1.9,1.6-3.5,3.5-3.5H71.9z"/>
	<path class="st3" d="M98.1,63.2c0,1.9-1.6,3.5-3.5,3.5H64.9l7-7h22.8C96.6,59.7,98.1,61.3,98.1,63.2z"/>
	<line class="st4" x1="35.1" y1="80.6" x2="86.8" y2="80.6"/>
	<circle class="st3" cx="35.1" cy="34" r="2.1"/>
	<path class="st3" d="M83.9,87.2c-0.1,0-0.3,0-0.4-0.1l-4.9-3.1c-0.3-0.3-0.4-0.6-0.1-0.9c0.3-0.3,0.6-0.4,0.9-0.1l4.9,3.1
		c0.3,0.3,0.4,0.6,0.1,0.9C84.3,87.1,84.2,87.2,83.9,87.2z"/>
	<path class="st3" d="M79.9,88.1c-0.1,0-0.3,0-0.4-0.1c-0.3-0.3-0.4-0.6-0.1-0.9l3.1-4.9c0.3-0.3,0.6-0.4,0.9-0.1
		c0.3,0.3,0.4,0.6,0.1,0.9l-3.3,4.9C80.2,88,80.1,88.1,79.9,88.1z"/>
</g>
</svg>
