<?xml version="1.0" encoding="utf-8"?>
<!-- Generator: Adobe Illustrator 22.1.0, SVG Export Plug-In . SVG Version: 6.00 Build 0)  -->
<svg version="1.1" xmlns="http://www.w3.org/2000/svg" xmlns:xlink="http://www.w3.org/1999/xlink" x="0px" y="0px"
	 viewBox="0 0 122.1 122.3" style="enable-background:new 0 0 122.1 122.3;" xml:space="preserve">
<style type="text/css">
	.st0{fill:#261F19;stroke:#261F19;stroke-width:3;stroke-linecap:round;stroke-linejoin:round;stroke-miterlimit:10;}
	.st1{fill:#DDAE2C;stroke:#DDAE2C;stroke-width:3;stroke-linecap:round;stroke-linejoin:round;stroke-miterlimit:10;}
	.st2{fill:none;stroke:#2D4234;stroke-width:3;stroke-linecap:round;stroke-linejoin:round;stroke-miterlimit:10;}
	.st3{fill:#DDAE2C;}
	.st4{fill:#261F19;}
</style>
<g id="圖層_1">
	<path class="st0" d="M107.7,27.3c-0.4,0-0.8-0.2-1-0.5C91,6,63.3-1.6,39.2,8.5c-0.7,0.3-1.4,0-1.7-0.7c-0.3-0.7,0-1.4,0.7-1.7
		c25.1-10.5,54.1-2.6,70.4,19.2c0.4,0.6,0.3,1.4-0.3,1.8C108.2,27.2,107.9,27.3,107.7,27.3z"/>
	<path class="st0" d="M61.2,120.8c-1.7,0-3.3-0.1-5-0.2c-0.7-0.1-1.2-0.7-1.2-1.4c0.1-0.7,0.7-1.2,1.4-1.2
		c11.2,0.9,22.2-1.4,32.1-6.8c13.2-7.2,22.9-19.2,27.3-33.6c4.3-14.5,2.8-29.7-4.3-43c-0.3-0.6-0.1-1.4,0.5-1.7
		c0.6-0.3,1.4-0.1,1.7,0.5c7.4,13.9,8.9,29.9,4.4,45c-4.5,15.1-14.6,27.6-28.4,35.2C80.9,118.2,71.1,120.8,61.2,120.8z"/>
	<path class="st0" d="M42,117.6c-0.2,0-0.3,0-0.4-0.1c-14-4.9-25.6-14.6-32.8-27.7c-11.3-20.7-9.4-46.2,5-65
		c0.4-0.6,1.2-0.7,1.8-0.3c0.6,0.4,0.7,1.2,0.3,1.8c-13.8,18-15.7,42.3-4.8,62.2c6.8,12.4,18,21.9,31.4,26.5c0.7,0.3,1,0.9,0.8,1.6
		C43,117.2,42.6,117.6,42,117.6z"/>
	<path class="st1" d="M19.6,21.3c-0.3,0-0.7-0.1-0.9-0.3c-0.5-0.5-0.5-1.3,0-1.8c4.2-4.3,8.9-7.7,14.2-10.6c0.6-0.3,1.4-0.1,1.7,0.5
		c0.3,0.6,0.1,1.4-0.5,1.7c-5,2.6-9.5,6-13.5,10.1C20.3,21.2,20,21.3,19.6,21.3z"/>
	<path class="st2" d="M96.4,119.8"/>
	<path class="st3" d="M16.3,86l3.1,6.2c0.2,0.5,0.7,0.8,1.1,0.8l6.8,1c1.3,0.2,1.7,1.7,0.8,2.5l-4.9,4.8c-0.3,0.3-0.5,0.8-0.5,1.4
		l1.1,6.8c0.2,1.3-1,2.2-2.2,1.6l-6-3.2c-0.5-0.2-0.9-0.2-1.4,0l-6,3.2c-1.1,0.6-2.4-0.3-2.2-1.6l1.1-6.8c0.1-0.5-0.1-1-0.5-1.4
		l-4.9-4.8C1,95.6,1.6,94.1,2.7,94l6.8-1c0.5-0.1,0.9-0.3,1.1-0.8l3.1-6.2C14.2,84.9,15.8,84.9,16.3,86z"/>
</g>
<g id="圖層_2">
	<polygon class="st4" points="52.7,47 52.7,40.2 45.1,40.2 45.1,37.2 55.7,37.2 55.7,47 	"/>
	<g>
		<g>
			<g>
				<rect x="30.4" y="52.5" class="st4" width="10.6" height="3"/>
			</g>
		</g>
	</g>
	<g>
		<g>
			<g>
				<rect x="68.8" y="32.7" class="st4" width="3" height="8.3"/>
			</g>
		</g>
	</g>
	<g>
		<g>
			<g>
				<rect x="52.7" y="71.3" class="st4" width="3" height="10.7"/>
			</g>
		</g>
	</g>
	<circle class="st4" cx="54.2" cy="31.6" r="1.8"/>
	<polygon class="st4" points="52.7,89.4 52.7,82.6 45.1,82.6 45.1,79.6 55.7,79.6 55.7,89.4 	"/>
	<g>
		<g>
			<g>
				<rect x="59.4" y="79.6" class="st4" width="5.1" height="3"/>
			</g>
		</g>
	</g>
	<path class="st4" d="M38,40.4c0-4.2-3.4-7.7-7.7-7.7v-1.9c0-0.3,0.2-0.7,0.4-0.8c0.2-0.2,0.5-0.2,0.7-0.2c1.1,0.1,2.1,0.4,3.1,0.8
		c2.1,0.9,3.8,2.4,4.9,4.3c0-0.1,0,0.1,0,0c0.9,1.5,1.5,3,1.5,4.9c0,0.2,0,0.4,0,0.6"/>
	<path class="st4" d="M30.4,86.4c4.2,0,7.7-3.4,7.7-7.7h1.9c0.3,0,0.7,0.2,0.8,0.4c0.2,0.2,0.2,0.5,0.2,0.7C40.9,81,40.6,82,40.2,83
		c-0.9,2.1-2.4,3.8-4.3,4.9c0.1,0-0.1,0,0,0c-1.5,0.9-3,1.5-4.9,1.5c-0.2,0-0.4,0-0.6,0"/>
	<path class="st4" d="M86.8,79c0,0.2,0,0.4,0,0.6c0,1.8-0.6,3.4-1.5,4.9c0,0,0,0,0,0c-1.1,1.9-2.9,3.5-4.9,4.3c-1,0.4-2,0.7-3.1,0.8
		c-0.3,0-0.5-0.1-0.7-0.2c-0.3-0.2-0.4-0.5-0.4-0.8v-1.9c4.2,0,7.7-3.4,7.7-7.7V55.4c0-4.2-3.4-7.7-7.7-7.7v-1.9
		c0-0.3,0.2-0.7,0.4-0.8c0.2-0.2,0.5-0.2,0.7-0.2c1.1,0.1,2.1,0.4,3.1,0.8c2.1,0.9,3.8,2.4,4.9,4.3v0c0.9,1.5,1.5,3,1.5,4.9
		c0,0.2,0,0.4,0,0.6v1.2l0,10.6l0,10.6V79z"/>
	<path class="st3" d="M61.3,50.5c0,0-0.1,0-0.1,0l0,0c0-0.1,0-0.1-0.1-0.2c0,0,0,0,0,0c0,0,0,0,0.1,0.1
		C61.2,50.4,61.3,50.5,61.3,50.5C61.3,50.5,61.3,50.5,61.3,50.5z"/>
	<circle class="st4" cx="80.4" cy="63" r="1.8"/>
	<circle class="st4" cx="80.4" cy="71.3" r="1.8"/>
	<circle class="st4" cx="68.4" cy="63" r="1.8"/>
	<circle class="st4" cx="68.4" cy="71.3" r="1.8"/>
	<path class="st4" d="M83.8,40.4c0-4.2-3.4-7.7-7.7-7.7v-1.9c0-0.3,0.2-0.7,0.4-0.8c0.2-0.2,0.5-0.2,0.7-0.2
		c1.1,0.1,2.1,0.4,3.1,0.8c2.1,0.9,3.8,2.4,4.9,4.3c0-0.1,0,0.1,0,0c0.9,1.5,1.5,3,1.5,4.9c0,0.2,0,0.4,0,0.6"/>
	<path class="st4" d="M76.1,79c0,0.2,0,0.4,0,0.6c0,1.8-0.6,3.4-1.5,4.9c0,0,0,0,0,0c-1.1,1.9-2.9,3.5-4.9,4.3c-1,0.4-2,0.7-3.1,0.8
		c-0.3,0-0.5-0.1-0.7-0.2c-0.3-0.2-0.4-0.5-0.4-0.8v-1.9c4.2,0,7.7-3.4,7.7-7.7V55.4c0-4.2-3.4-7.7-7.7-7.7v-1.9
		c0-0.3,0.2-0.7,0.4-0.8c0.2-0.2,0.5-0.2,0.7-0.2c1.1,0.1,2.1,0.4,3.1,0.8c2.1,0.9,3.8,2.4,4.9,4.3v0c0.9,1.5,1.5,3,1.5,4.9
		c0,0.2,0,0.4,0,0.6v1.2l0,10.6l0,10.6V79z"/>
	<polygon class="st4" points="76.2,56.6 76.2,67.2 76.1,56.6 	"/>
	<path class="st4" d="M54.2,66.3c-5.7,0-10.4-4.7-10.4-10.4c0-5.7,4.7-10.4,10.4-10.4c2.8,0,5.4,1.1,7.3,3c2,2,3,4.6,3,7.3
		C64.6,61.6,59.9,66.3,54.2,66.3z M54.2,48.5c-4.1,0-7.4,3.3-7.4,7.4c0,4.1,3.3,7.4,7.4,7.4s7.4-3.3,7.4-7.4c0-2-0.8-3.8-2.2-5.2
		C58.1,49.3,56.2,48.5,54.2,48.5z"/>
	<path class="st3" d="M54.5,58.5c-2.1,3.1-4.3,6.1-6.6,9.1h-3.7c2.3-3,4.5-6,6.7-9.1H54.5z"/>
	<path class="st3" d="M54.5,58.5c-2.1,3.1-4.3,6.1-6.6,9.1h-3.7c2.3-3,4.5-6,6.7-9.1H54.5z"/>
	<path class="st3" d="M114.4,28.7c-1.9,0.6-3.8,1.3-5.5,2.3c-0.9,0.5-1.7,1-2.5,1.6c-0.8,0.6-1.6,1.2-2.3,1.8
		c-1.5,1.3-2.8,2.7-4.1,4.2c-1.3,1.5-2.4,3.1-3.5,4.7c-0.3,0.4-0.6,0.8-0.8,1.2c-0.3,0.4-0.6,0.8-0.9,1.2c-0.6,0.8-1.1,1.6-1.6,2.5
		C92,49.9,91,51.6,90,53.3L77.5,73.9l-1.6,2.6l-0.8,1.3c-0.3,0.4-0.5,0.9-0.8,1.3c-0.3,0.4-0.6,0.9-1,1.3c-0.3,0.4-0.7,0.9-1.2,1.3
		c-0.4,0.4-0.9,0.8-1.5,1.1c-0.3,0.2-0.6,0.3-0.9,0.4c-0.3,0.1-0.7,0.2-1,0.3c-0.2,0-0.3,0.1-0.5,0.1c-0.2,0-0.4,0-0.5,0
		c-0.4,0-0.7-0.1-1.1-0.2c-0.7-0.2-1.3-0.5-1.9-0.9c-1.1-0.8-1.8-1.9-2.2-3.1c-0.4-1.1-0.6-2.3-0.6-3.4c-0.1-1.1,0-2.1-0.1-3.1
		l-0.1-12c0-2,0-4-0.1-6c-0.1-1-0.1-1.9-0.3-2.9c0-0.2-0.1-0.5-0.1-0.7c0-0.2-0.1-0.5-0.1-0.6c0-0.1,0-0.1-0.1-0.2l0,0
		c0.1,0,0.1,0,0.1,0c0,0,0,0,0,0c0,0-0.1,0-0.1,0c-0.1,0-0.1-0.1-0.1-0.1c0,0,0,0,0,0c0,0,0,0.1,0.1,0.2l-0.2,0.1
		c-0.3,0.1-0.6,0.3-0.9,0.5c-0.6,0.4-1.2,1.1-1.7,1.9c-0.3,0.4-0.5,0.8-0.8,1.2l-0.8,1.3l-1.7,2.5c-4.6,6.6-9.5,13.1-14.6,19.3
		c-0.6,0.8-1.3,1.5-1.9,2.3c-0.3,0.4-0.6,0.8-1,1.2c-0.4,0.4-0.8,0.8-1.3,1.2c-0.3,0.2-0.5,0.4-0.8,0.5c-0.2,0.1-0.3,0.2-0.5,0.2
		c-0.2,0.1-0.4,0.1-0.5,0.2c-0.7,0.2-1.5,0.2-2.2,0.1c-0.7-0.2-1.6-0.6-2.1-1.3c-0.3-0.4-0.5-0.8-0.6-1.2c-0.1-0.4-0.2-0.8-0.2-1.1
		c0-0.7,0.1-1.3,0.2-1.8l0.3-1.5c0.1-0.5,0.2-1,0.3-1.5l0.3-1.5l0.7-2.9c0.2-1,0.5-2,0.8-2.9c1.2-3.8,2.5-7.6,3.5-11.5
		c0.8-3,1.3-6.1,1.4-9.2v0c0-0.9,0.1-1.8,0.1-2.6c2.3-1.9,0.2,12.3-0.2,14.8c0,0.1,0,0.2,0,0.3c0,0.1,0,0.1,0,0.1
		c-0.2,1-0.3,2-0.5,3c-0.4,2-0.8,4-1.2,5.9c-0.2,1-0.5,1.9-0.8,2.9c-0.3,1-0.5,1.9-0.7,2.9l-0.3,1.4c-0.1,0.5-0.2,1-0.3,1.4
		c-0.2,0.9-0.5,2-0.5,2.6c0,0.3,0.1,0.5,0.1,0.5c0.1,0.1,0.2,0.2,0.4,0.2c0.2,0.1,0.5,0.1,0.8,0c0.1,0,0.1,0,0.2-0.1
		c0.1,0,0.1-0.1,0.2-0.1c0.1-0.1,0.3-0.2,0.4-0.3c0.6-0.4,1.2-1.2,1.8-1.9c0.6-0.8,1.3-1.5,1.9-2.3c5.1-6.2,9.9-12.5,14.5-19.1
		l1.7-2.5l0.8-1.2c0.3-0.4,0.6-0.9,0.9-1.3c0.6-0.9,1.4-1.8,2.4-2.5c0.5-0.4,1.1-0.7,1.7-0.9c0.2-0.1,0.3-0.1,0.5-0.2
		c0.2,0,0.4-0.1,0.6-0.1c0.2,0,0.5,0,0.8,0s0.6,0.1,0.9,0.3c0.5,0.3,0.9,0.8,1.1,1.2c0.2,0.4,0.3,0.7,0.4,1.1
		c0.1,0.3,0.1,0.6,0.2,0.8c0,0.3,0.1,0.5,0.1,0.8c0.1,1.1,0.2,2.1,0.3,3.1c0.1,2.1,0.1,4.1,0.1,6.1l0.1,12c0,2-0.1,4,0.5,5.5
		c0.3,0.7,0.7,1.4,1.2,1.8c0.3,0.2,0.5,0.3,0.8,0.4c0.1,0,0.3,0,0.4,0.1c0.1,0,0.1,0,0.2,0c0.1,0,0.1,0,0.2,0c0.1,0,0.3-0.1,0.4-0.1
		c0.1-0.1,0.3-0.1,0.5-0.2c0.3-0.2,0.6-0.4,0.9-0.7c0.6-0.6,1.2-1.3,1.7-2.1c0.5-0.8,1-1.7,1.5-2.5l1.6-2.6l6.3-10.3l6.3-10.3
		c1-1.7,2.1-3.4,3.2-5.2c0.5-0.9,1.1-1.7,1.7-2.5c0.6-0.9,1.1-1.7,1.8-2.5c1.3-1.6,2.7-3.1,4.2-4.5c1.5-1.4,3.1-2.7,4.8-3.9
		c0.8-0.6,1.7-1.1,2.6-1.6c0.9-0.5,1.8-0.9,2.8-1.3c0.5-0.2,1-0.4,1.4-0.5c0.5-0.1,1-0.3,1.5-0.4C112.4,29,113.4,28.8,114.4,28.7z"
		/>
	<path class="st3" d="M36.5,58.9c0-0.1,0-0.2,0-0.3C36.5,58.8,36.5,58.9,36.5,58.9z"/>
	<path class="st3" d="M36.7,43.9c0,0.9,0,1.8-0.1,2.6L36.7,43.9z"/>
</g>
</svg>
