<?xml version="1.0" encoding="utf-8"?>
<!-- Generator: Adobe Illustrator 22.1.0, SVG Export Plug-In . SVG Version: 6.00 Build 0)  -->
<svg version="1.1" id="圖層_1" xmlns="http://www.w3.org/2000/svg" xmlns:xlink="http://www.w3.org/1999/xlink" x="0px" y="0px"
	 viewBox="0 0 122.1 122.3" style="enable-background:new 0 0 122.1 122.3;" xml:space="preserve">
<style type="text/css">
	.st0{fill:#261F19;stroke:#261F19;stroke-width:3;stroke-linecap:round;stroke-linejoin:round;stroke-miterlimit:10;}
	.st1{fill:#DDAE2C;stroke:#DDAE2C;stroke-width:3;stroke-linecap:round;stroke-linejoin:round;stroke-miterlimit:10;}
	.st2{fill:none;stroke:#2D4234;stroke-width:3;stroke-linecap:round;stroke-linejoin:round;stroke-miterlimit:10;}
	.st3{fill:#DDAE2C;}
	.st4{fill:#B5B5B5;}
	.st5{fill:#261F19;}
</style>
<path class="st0" d="M107.7,27.3c-0.4,0-0.8-0.2-1-0.5C91,6,63.3-1.6,39.2,8.5c-0.7,0.3-1.4,0-1.7-0.7c-0.3-0.7,0-1.4,0.7-1.7
	c25.1-10.5,54.1-2.6,70.4,19.2c0.4,0.6,0.3,1.4-0.3,1.8C108.2,27.2,107.9,27.3,107.7,27.3z"/>
<path class="st0" d="M61.2,120.8c-1.7,0-3.3-0.1-5-0.2c-0.7-0.1-1.2-0.7-1.2-1.4c0.1-0.7,0.7-1.2,1.4-1.2
	c11.2,0.9,22.2-1.4,32.1-6.8c13.2-7.2,22.9-19.2,27.3-33.6c4.3-14.5,2.8-29.7-4.3-43c-0.3-0.6-0.1-1.4,0.5-1.7
	c0.6-0.3,1.4-0.1,1.7,0.5c7.4,13.9,8.9,29.9,4.4,45c-4.5,15.1-14.6,27.6-28.4,35.2C80.9,118.2,71.1,120.8,61.2,120.8z"/>
<path class="st0" d="M42,117.6c-0.2,0-0.3,0-0.4-0.1c-14-4.9-25.6-14.6-32.8-27.7c-11.3-20.7-9.4-46.2,5-65c0.4-0.6,1.2-0.7,1.8-0.3
	c0.6,0.4,0.7,1.2,0.3,1.8c-13.8,18-15.7,42.3-4.8,62.2c6.8,12.4,18,21.9,31.4,26.5c0.7,0.3,1,0.9,0.8,1.6
	C43,117.2,42.6,117.6,42,117.6z"/>
<path class="st1" d="M19.6,21.3c-0.3,0-0.7-0.1-0.9-0.3c-0.5-0.5-0.5-1.3,0-1.8c4.2-4.3,8.9-7.7,14.2-10.6c0.6-0.3,1.4-0.1,1.7,0.5
	c0.3,0.6,0.1,1.4-0.5,1.7c-5,2.6-9.5,6-13.5,10.1C20.3,21.2,20,21.3,19.6,21.3z"/>
<path class="st2" d="M96.4,119.8"/>
<path class="st3" d="M16.3,86l3.1,6.2c0.2,0.5,0.7,0.8,1.1,0.8l6.8,1c1.3,0.2,1.7,1.7,0.8,2.5l-4.9,4.8c-0.3,0.3-0.5,0.8-0.5,1.4
	l1.1,6.8c0.2,1.3-1,2.2-2.2,1.6l-6-3.2c-0.5-0.2-0.9-0.2-1.4,0l-6,3.2c-1.1,0.6-2.4-0.3-2.2-1.6l1.1-6.8c0.1-0.5-0.1-1-0.5-1.4
	l-4.9-4.8C1,95.6,1.6,94.1,2.7,94l6.8-1c0.5-0.1,0.9-0.3,1.1-0.8l3.1-6.2C14.2,84.9,15.8,84.9,16.3,86z"/>
<path class="st3" d="M64.9,94.4h6.2c0.6,0,1-0.5,1-1v-5.2c0-0.6-0.5-1-1-1h-1.3H58.3H57c-0.6,0-1,0.5-1,1v5.2c0,0.6,0.5,1,1,1h6.2
	H64.9z"/>
<rect x="53.6" y="69.3" transform="matrix(0.5167 -0.8562 0.8562 0.5167 -26.3744 93.9585)" class="st4" width="32.9" height="2"/>
<path class="st5" d="M69.6,93.6H53.5c-0.8,0-1.5-0.7-1.5-1.5v-7.2c0-0.8,0.7-1.5,1.5-1.5h16.1c0.8,0,1.5,0.7,1.5,1.5v7.2
	C71.1,93,70.4,93.6,69.6,93.6z M55,90.6h13.1v-4.2H55V90.6z"/>
<path class="st5" d="M66.1,86.4c-0.3,0-0.5-0.1-0.8-0.2c-0.7-0.4-0.9-1.4-0.5-2.1l15-24.8L61.5,25.5L43.2,59.4l15,24.8
	c0.4,0.7,0.2,1.6-0.5,2.1c-0.7,0.4-1.6,0.2-2.1-0.5L40.2,60.2c-0.3-0.5-0.3-1,0-1.5l20-37c0.3-0.5,0.8-0.8,1.3-0.8l0,0
	c0.6,0,1.1,0.3,1.3,0.8l20,37c0.3,0.5,0.2,1,0,1.5L67.4,85.7C67.1,86.2,66.6,86.4,66.1,86.4z"/>
<path class="st5" d="M61.5,55.3c-0.8,0-1.5-0.7-1.5-1.5V22.4c0-0.8,0.7-1.5,1.5-1.5s1.5,0.7,1.5,1.5v31.4
	C63,54.6,62.4,55.3,61.5,55.3z"/>
<circle class="st5" cx="63.2" cy="59.4" r="3.4"/>
<path class="st3" d="M61.6,63c-2.6,0-4.8-2.1-4.8-4.8c0-2.6,2.1-4.8,4.8-4.8c2.6,0,4.8,2.1,4.8,4.8C66.3,60.8,64.2,63,61.6,63z
	 M61.6,55.4c-1.5,0-2.8,1.2-2.8,2.8S60,61,61.6,61s2.8-1.2,2.8-2.8S63.1,55.4,61.6,55.4z"/>
<path class="st3" d="M53.5,87.7c-1.4,0-2.7-0.9-3.1-2.3l0,0c-0.5-1.7,0.5-3.6,2.2-4.1c0.8-0.3,1.7-0.2,2.5,0.3
	c0.8,0.4,1.3,1.1,1.6,1.9c0.5,1.7-0.5,3.6-2.2,4.1C54.1,87.6,53.8,87.7,53.5,87.7z M51.3,85.1c0.4,1.2,1.6,1.9,2.8,1.5
	c1.2-0.4,1.9-1.6,1.5-2.8c-0.2-0.6-0.6-1.1-1.1-1.3s-1.2-0.3-1.7-0.2C51.6,82.6,50.9,83.8,51.3,85.1L51.3,85.1z"/>
</svg>
