<?xml version="1.0" encoding="utf-8"?>
<!-- Generator: Adobe Illustrator 22.1.0, SVG Export Plug-In . SVG Version: 6.00 Build 0)  -->
<svg version="1.1" id="圖層_1" xmlns="http://www.w3.org/2000/svg" xmlns:xlink="http://www.w3.org/1999/xlink" x="0px" y="0px"
	 viewBox="0 0 122.1 122.3" style="enable-background:new 0 0 122.1 122.3;" xml:space="preserve">
<style type="text/css">
	.st0{fill:#261F19;stroke:#261F19;stroke-width:3;stroke-linecap:round;stroke-linejoin:round;stroke-miterlimit:10;}
	.st1{fill:#DDAE2C;stroke:#DDAE2C;stroke-width:3;stroke-linecap:round;stroke-linejoin:round;stroke-miterlimit:10;}
	.st2{fill:none;stroke:#2D4234;stroke-width:3;stroke-linecap:round;stroke-linejoin:round;stroke-miterlimit:10;}
	.st3{fill:#DDAE2C;}
	.st4{fill:#261F19;}
	.st5{fill:#DBC691;}
	.st6{fill:#2D4234;}
</style>
<path class="st0" d="M107.7,27.3c-0.4,0-0.8-0.2-1-0.5C91,6,63.3-1.6,39.2,8.5c-0.7,0.3-1.4,0-1.7-0.7c-0.3-0.7,0-1.4,0.7-1.7
	c25.1-10.5,54.1-2.6,70.4,19.2c0.4,0.6,0.3,1.4-0.3,1.8C108.2,27.2,107.9,27.3,107.7,27.3z"/>
<path class="st0" d="M61.2,120.8c-1.7,0-3.3-0.1-5-0.2c-0.7-0.1-1.2-0.7-1.2-1.4c0.1-0.7,0.7-1.2,1.4-1.2
	c11.2,0.9,22.2-1.4,32.1-6.8c13.2-7.2,22.9-19.2,27.3-33.6c4.3-14.5,2.8-29.7-4.3-43c-0.3-0.6-0.1-1.4,0.5-1.7
	c0.6-0.3,1.4-0.1,1.7,0.5c7.4,13.9,8.9,29.9,4.4,45c-4.5,15.1-14.6,27.6-28.4,35.2C80.9,118.2,71.1,120.8,61.2,120.8z"/>
<path class="st0" d="M42,117.6c-0.2,0-0.3,0-0.4-0.1c-14-4.9-25.6-14.6-32.8-27.7c-11.3-20.7-9.4-46.2,5-65c0.4-0.6,1.2-0.7,1.8-0.3
	c0.6,0.4,0.7,1.2,0.3,1.8c-13.8,18-15.7,42.3-4.8,62.2c6.8,12.4,18,21.9,31.4,26.5c0.7,0.3,1,0.9,0.8,1.6
	C43,117.2,42.6,117.6,42,117.6z"/>
<path class="st1" d="M19.6,21.3c-0.3,0-0.7-0.1-0.9-0.3c-0.5-0.5-0.5-1.3,0-1.8c4.2-4.3,8.9-7.7,14.2-10.6c0.6-0.3,1.4-0.1,1.7,0.5
	c0.3,0.6,0.1,1.4-0.5,1.7c-5,2.6-9.5,6-13.5,10.1C20.3,21.2,20,21.3,19.6,21.3z"/>
<path class="st2" d="M96.4,119.8"/>
<path class="st3" d="M16.3,86l3.1,6.2c0.2,0.5,0.7,0.8,1.1,0.8l6.8,1c1.3,0.2,1.7,1.7,0.8,2.5l-4.9,4.8c-0.3,0.3-0.5,0.8-0.5,1.4
	l1.1,6.8c0.2,1.3-1,2.2-2.2,1.6l-6-3.2c-0.5-0.2-0.9-0.2-1.4,0l-6,3.2c-1.1,0.6-2.4-0.3-2.2-1.6l1.1-6.8c0.1-0.5-0.1-1-0.5-1.4
	l-4.9-4.8C1,95.6,1.6,94.1,2.7,94l6.8-1c0.5-0.1,0.9-0.3,1.1-0.8l3.1-6.2C14.2,84.9,15.8,84.9,16.3,86z"/>
<circle class="st4" cx="63.2" cy="59.4" r="3.4"/>
<path class="st3" d="M61.6,63c-2.6,0-4.8-2.1-4.8-4.8c0-2.6,2.1-4.8,4.8-4.8c2.6,0,4.8,2.1,4.8,4.8C66.3,60.8,64.2,63,61.6,63z
	 M61.6,55.4c-1.5,0-2.8,1.2-2.8,2.8S60,61,61.6,61s2.8-1.2,2.8-2.8S63.1,55.4,61.6,55.4z"/>
<path class="st3" d="M70,44.7l-9,17.4l-1.5,3l-1.2,2.3H46.9c-1.2,0-2.3-1-2.8-2.3c-0.2-0.5-0.2-1-0.2-1.5v-15c0-2.1,1.4-3.9,3-3.9
	C46.9,44.7,70,44.7,70,44.7z"/>
<path class="st5" d="M84.3,48.6v15c0,2.1-1.3,3.9-3,3.9h-23l1.2-2.3l1.5-3l9-17.4h11.3C83,44.7,84.3,46.4,84.3,48.6z"/>
<path class="st4" d="M37.4,47.6v9.2h0.1L37.4,47.6L37.4,47.6z M77.8,44.7v15c0,1.4-0.8,2.4-1.5,2.4H43.9v1.5c0,0.5,0.1,1.1,0.2,1.5
	h32.1c2.5,0,4.5-2.4,4.5-5.4v-15C80.7,44.7,77.8,44.7,77.8,44.7z"/>
<path class="st4" d="M82.9,50.1v4.2c0,1.3-1,2.4-2.2,2.5v-9.2C81.9,47.7,82.9,48.8,82.9,50.1z"/>
<path class="st4" d="M84.6,73.8h-4.4c-0.8,0-1.5-0.7-1.5-1.5s0.7-1.5,1.5-1.5h4.4c0.6,0,1.1-0.5,1.1-1.1v-15c0-0.6-0.5-1.1-1.1-1.1
	H82c-0.8,0-1.5-0.7-1.5-1.5s0.7-1.5,1.5-1.5h2.6c2.2,0,4.1,1.8,4.1,4.1v15C88.7,72,86.9,73.8,84.6,73.8z"/>
<path class="st4" d="M59.1,87.4c-0.8,0-1.5-0.7-1.5-1.5V73.7c0-1.5,1.7-2.9,3.5-2.9h18.6c0.8,0,1.5,0.7,1.5,1.5s-0.7,1.5-1.5,1.5H61
	c-0.2,0-0.4,0.1-0.5,0.2v11.9C60.6,86.7,59.9,87.4,59.1,87.4z"/>
<path class="st4" d="M65.2,87.4H52.4c-0.8,0-1.5-0.7-1.5-1.5s0.7-1.5,1.5-1.5h12.8c0.8,0,1.5,0.7,1.5,1.5S66,87.4,65.2,87.4z"/>
<path class="st4" d="M73.5,87.4h-3.7c-0.8,0-1.5-0.7-1.5-1.5s0.7-1.5,1.5-1.5h3.7c0.8,0,1.5,0.7,1.5,1.5S74.3,87.4,73.5,87.4z"/>
<path class="st4" d="M58.8,105.6c-3.3,0-6-2.7-6-6c0-0.8,0.7-1.5,1.5-1.5s1.5,0.7,1.5,1.5c0,1.7,1.4,3,3,3s3-1.4,3-3
	c0-0.8,0.7-1.5,1.5-1.5s1.5,0.7,1.5,1.5C64.9,102.9,62.2,105.6,58.8,105.6z"/>
<path class="st4" d="M54.3,101.1L54.3,101.1c-0.9-0.1-1.5-0.8-1.5-1.6l1.3-13.7c0.1-0.8,0.8-1.4,1.6-1.4c0.8,0.1,1.4,0.8,1.4,1.6
	l-1.3,13.7C55.7,100.5,55.1,101.1,54.3,101.1z"/>
<path class="st4" d="M63.4,101.1c-0.8,0-1.4-0.6-1.5-1.4L60.6,86c-0.1-0.8,0.5-1.6,1.4-1.6c0.8-0.1,1.6,0.5,1.6,1.4l1.3,13.7
	C65,100.3,64.4,101.1,63.4,101.1C63.5,101,63.4,101.1,63.4,101.1z"/>
<circle class="st4" cx="58.7" cy="99.4" r="1.4"/>
<path class="st3" d="M53.7,22.3c-0.8,0-1.5-0.7-1.5-1.5v-4.2c0-0.8,0.7-1.5,1.5-1.5s1.5,0.7,1.5,1.5v4.2
	C55.2,21.6,54.5,22.3,53.7,22.3z"/>
<path class="st6" d="M53.8,42.4L53.8,42.4h-0.2H53.8z"/>
<path class="st3" d="M62.1,24.3c-0.8,0-1.5-0.7-1.5-1.5v-0.6c0-0.8,0.7-1.5,1.5-1.5s1.5,0.7,1.5,1.5v0.6
	C63.6,23.6,63,24.3,62.1,24.3z"/>
<path class="st3" d="M62.1,33.8c-0.8,0-1.5-0.7-1.5-1.5v-2.6c0-0.8,0.7-1.5,1.5-1.5s1.5,0.7,1.5,1.5v2.6
	C63.6,33.1,63,33.8,62.1,33.8z"/>
<path class="st4" d="M80.8,44.7h-3c0-1.4-0.8-2.3-1.5-2.3H41.9c-0.7,0-1.5,1-1.5,2.4v15c0,1.4,0.8,2.4,1.5,2.4h2v1.5
	c0,0.5,0.1,1.1,0.2,1.5h-2.3c-2.5,0-4.5-2.4-4.5-5.4v-3h0.1v-9.2h-0.1v-2.8c0-2.9,2-5.4,4.5-5.4h2.4c0.9,0,1.6-0.7,1.6-1.6v-4.7
	c0-0.8,0.7-1.5,1.5-1.5s1.5,0.7,1.5,1.5v4.7c0,0.9,0.7,1.6,1.6,1.6l0,0c0.9,0,1.6-0.7,1.6-1.6V26c0-0.8,0.7-1.5,1.5-1.5
	S55,25.2,55,26v11.7c0,0.9,0.7,1.6,1.6,1.6h2.2c0.9,0,1.6-0.7,1.6-1.6v-1c0-0.8,0.7-1.5,1.5-1.5s1.5,0.7,1.5,1.5v1
	c0,0.9,0.7,1.6,1.6,1.6h2c0.9,0,1.6-0.7,1.6-1.6v-2.3c0-0.8,0.7-1.5,1.5-1.5s1.5,0.7,1.5,1.5v2.3c0,0.9,0.7,1.6,1.6,1.6h2.7
	C78.7,39.4,80.7,41.8,80.8,44.7z"/>
<path class="st6" d="M62.2,42.4L62.2,42.4H62H62.2z"/>
<path class="st3" d="M70.4,32c-0.8,0-1.5-0.7-1.5-1.5v-2.3c0-0.8,0.7-1.5,1.5-1.5s1.5,0.7,1.5,1.5v2.3C71.9,31.4,71.2,32,70.4,32z"
	/>
<path class="st6" d="M70.5,42.4L70.5,42.4h-0.2H70.5z"/>
<path class="st3" d="M79.2,47.3c-0.2,0-0.3,0-0.5,0c-0.9-0.1-1.6-0.6-2.2-1.3c-0.5-0.7-0.7-1.6-0.6-2.4c0.3-1.8,1.9-3,3.7-2.8
	c0.9,0.1,1.6,0.6,2.2,1.3s0.7,1.6,0.6,2.4c-0.1,0.9-0.6,1.6-1.3,2.2C80.6,47.1,79.9,47.3,79.2,47.3z M79.2,41.8
	c-1.1,0-2.1,0.8-2.3,1.9c-0.1,0.6,0.1,1.2,0.4,1.7c0.4,0.5,0.9,0.8,1.5,0.9c0.6,0.1,1.2-0.1,1.7-0.4c0.5-0.4,0.8-0.9,0.9-1.5l0,0
	c0.2-1.2-0.7-2.4-1.9-2.6C79.4,41.8,79.3,41.8,79.2,41.8z"/>
</svg>
