<?xml version="1.0" standalone="no"?>
<!DOCTYPE svg PUBLIC "-//W3C//DTD SVG 20010904//EN"
 "http://www.w3.org/TR/2001/REC-SVG-20010904/DTD/svg10.dtd">
<svg version="1.0" xmlns="http://www.w3.org/2000/svg"
 width="1084.000000pt" height="1084.000000pt" viewBox="0 0 1084.000000 1084.000000"
 preserveAspectRatio="xMidYMid meet">
<metadata>
Created by potrace 1.11, written by Peter Selinger 2001-2013
</metadata>
<g transform="translate(0.000000,1084.000000) scale(0.100000,-0.100000)"
fill="#000000" stroke="none">
<path d="M10151 8608 c-25 -4 -63 -10 -85 -14 -395 -58 -912 -300 -1321 -619
-206 -161 -468 -411 -635 -606 -30 -35 -57 -66 -60 -69 -62 -55 -394 -537
-571 -830 -42 -69 -248 -408 -459 -755 -498 -818 -605 -995 -915 -1505 -141
-234 -279 -460 -305 -504 -54 -88 -149 -213 -167 -220 -13 -5 -29 60 -38 149
-2 28 -7 369 -10 758 -12 1479 -11 1466 -72 1832 -43 264 -215 460 -443 509
-63 14 -183 14 -245 1 -115 -23 -269 -96 -369 -175 -52 -40 -164 -152 -216
-215 -51 -63 -148 -201 -346 -495 -163 -241 -456 -649 -679 -945 -169 -225
-422 -554 -435 -565 -3 -3 -21 -25 -40 -50 -19 -25 -42 -54 -52 -65 -9 -11
-47 -58 -85 -105 -37 -48 -83 -104 -100 -125 l-33 -40 21 75 c11 41 35 129 54
195 26 94 124 553 149 695 2 14 11 63 20 110 8 47 18 99 21 115 2 17 7 41 10
55 3 14 7 39 10 55 5 37 15 102 20 135 8 44 24 173 30 235 3 33 8 74 10 90 27
218 27 845 -1 960 -5 21 -8 49 -20 150 -3 33 -16 79 -27 103 -33 72 -118 122
-199 117 -187 -13 -233 -25 -287 -76 -42 -39 -54 -85 -56 -216 -3 -126 -14
-330 -19 -361 -2 -9 -7 -47 -10 -84 -4 -37 -9 -77 -11 -90 -15 -92 -36 -216
-39 -233 -21 -96 -39 -176 -61 -265 -14 -58 -28 -114 -30 -125 -18 -86 -155
-532 -281 -913 -39 -119 -62 -197 -68 -227 -1 -5 -5 -19 -9 -30 -3 -11 -8 -31
-11 -45 -2 -14 -34 -142 -69 -285 -36 -143 -68 -273 -70 -290 -3 -16 -9 -41
-12 -55 -3 -14 -8 -36 -11 -50 -2 -14 -16 -81 -30 -150 -31 -152 -35 -311 -10
-410 74 -297 336 -494 650 -489 116 2 188 17 293 60 150 63 277 174 482 419
62 74 121 144 130 156 42 49 366 450 452 559 189 238 516 670 707 935 34 47
66 90 72 97 5 7 10 16 10 22 0 5 4 11 8 13 10 4 238 327 364 517 57 85 58 85
59 51 0 -19 2 -188 4 -375 6 -617 17 -1469 19 -1525 13 -243 95 -487 215 -640
144 -184 326 -299 528 -333 237 -41 453 19 671 186 144 110 279 277 437 542
27 44 77 127 112 185 35 58 68 112 73 120 13 22 226 371 287 470 28 47 71 117
94 155 23 39 97 160 164 270 67 110 167 274 222 365 55 91 178 293 273 450 95
157 211 348 258 425 236 389 344 557 470 735 41 58 109 155 151 215 65 96 183
261 218 305 111 142 246 293 368 411 111 107 143 134 260 223 226 171 438 286
684 371 74 26 145 54 158 62 31 20 70 87 78 135 9 49 -30 230 -61 285 -45 77
-134 111 -243 91z"/>
</g>
</svg>
